<svg xmlns="http://www.w3.org/2000/svg" viewBox="0 0 24 24">
  <defs>
    <linearGradient id="cert2-gradient" x1="0%" y1="0%" x2="100%" y2="100%">
      <stop offset="0%" style="stop-color:#0056D3"/>
      <stop offset="100%" style="stop-color:#4285F4"/>
    </linearGradient>
  </defs>
  <!-- Coursera certificate -->
  <rect x="2" y="4" width="20" height="16" rx="2" fill="url(#cert2-gradient)"/>
  <rect x="3" y="5" width="18" height="14" rx="1" fill="white"/>
  
  <!-- Coursera logo elements -->
  <circle cx="8" cy="9" r="1" fill="#0056D3"/>
  <circle cx="12" cy="9" r="1" fill="#0056D3"/>
  <circle cx="16" cy="9" r="1" fill="#0056D3"/>
  
  <!-- JavaScript symbol -->
  <rect x="6" y="12" width="4" height="3" rx="0.5" fill="#F7DF1E"/>
  <text x="8" y="14.5" font-family="Arial" font-size="2" fill="black" text-anchor="middle">JS</text>
  
  <!-- Data structures symbol -->
  <path d="M14 12h4v1h-4v1h3v1h-3v-3z" fill="#4CAF50"/>
  <circle cx="15" cy="15" r="0.5" fill="#4CAF50"/>
  <circle cx="17" cy="15" r="0.5" fill="#4CAF50"/>
  
  <!-- Certificate seal -->
  <circle cx="19" cy="7" r="1.5" fill="#FFD700"/>
  <path d="M19 6.2l0.3 0.6 0.7 0.1-0.5 0.5 0.1 0.7-0.6-0.3-0.6 0.3 0.1-0.7-0.5-0.5 0.7-0.1z" fill="white"/>
</svg>