<svg xmlns="http://www.w3.org/2000/svg" viewBox="0 0 24 24">
  <defs>
    <linearGradient id="python-gradient" x1="0%" y1="0%" x2="100%" y2="100%">
      <stop offset="0%" style="stop-color:#3776ab"/>
      <stop offset="100%" style="stop-color:#ffd43b"/>
    </linearGradient>
  </defs>
  <path d="M12 2C8.5 2 7 3.5 7 6v3h5v1H6c-2.5 0-4 1.5-4 4s1.5 4 4 4h2v-3c0-2.5 2-4.5 4.5-4.5h5c2 0 3.5-1.5 3.5-3.5V6c0-2.5-1.5-4-4-4h-5zm-2 3c.5 0 1 .5 1 1s-.5 1-1 1-1-.5-1-1 .5-1 1-1z" fill="url(#python-gradient)"/>
  <path d="M12 22c3.5 0 5-1.5 5-4v-3h-5v-1h6c2.5 0 4-1.5 4-4s-1.5-4-4-4h-2v3c0 2.5-2 4.5-4.5 4.5h-5c-2 0-3.5 1.5-3.5 3.5v5c0 2.5 1.5 4 4 4h5zm2-3c-.5 0-1-.5-1-1s.5-1 1-1 1 .5 1 1-.5 1-1 1z" fill="url(#python-gradient)"/>
</svg>